<?xml version="1.0" standalone="no"?>
<!DOCTYPE svg PUBLIC "-//W3C//DTD SVG 20010904//EN"
 "http://www.w3.org/TR/2001/REC-SVG-20010904/DTD/svg10.dtd">
<svg version="1.0" xmlns="http://www.w3.org/2000/svg"
 width="150.000000pt" height="40.000000pt" viewBox="0 0 150.000000 40.000000"
 preserveAspectRatio="xMidYMid meet">

<g transform="translate(0.000000,40.000000) scale(0.100000,-0.100000)"
fill="#000000" stroke="none">
<path d="M380 350 c0 -27 -3 -50 -8 -50 -4 0 -6 -19 -4 -43 l4 -43 -42 4 c-23
2 -47 -1 -53 -7 -8 -8 -8 -11 2 -11 7 0 9 -4 6 -10 -4 -6 10 -10 37 -9 40 1
41 2 13 9 l-30 8 33 1 34 1 -4 -50 c-1 -28 0 -50 5 -50 4 0 7 -20 7 -45 l0
-45 310 0 310 0 0 195 0 195 -310 0 -310 0 0 -50z m160 -10 c0 -5 -26 -10 -57
-12 l-58 -3 0 -45 0 -45 53 -3 c28 -2 52 -7 52 -12 0 -5 -24 -10 -52 -12 l-53
-3 -3 -58 c-2 -40 -7 -57 -15 -54 -8 2 -13 43 -15 130 l-3 127 76 0 c41 0 75
-4 75 -10z m189 -71 c87 -94 -30 -240 -120 -150 -39 40 -41 109 -4 146 32 33
95 35 124 4z m221 3 c16 -13 24 -32 28 -70 4 -47 2 -54 -26 -82 -71 -71 -174
1 -148 105 16 61 96 87 146 47z"/>
<path d="M650 263 c-42 -15 -56 -96 -22 -126 41 -37 102 -7 102 50 0 26 -20
73 -31 73 -4 0 -13 2 -21 4 -7 3 -20 2 -28 -1z"/>
<path d="M863 260 c-29 -12 -42 -74 -22 -109 18 -32 63 -40 90 -15 26 24 26
87 -1 114 -22 22 -33 23 -67 10z"/>
<path d="M220 350 c8 -5 20 -10 25 -10 6 0 3 5 -5 10 -8 5 -19 10 -25 10 -5 0
-3 -5 5 -10z"/>
<path d="M1150 309 c0 -50 0 -50 -22 -35 -32 23 -65 20 -93 -9 -20 -19 -25
-34 -25 -75 0 -41 5 -56 25 -75 27 -28 61 -32 92 -10 19 13 22 13 27 -1 3 -8
10 -12 16 -9 6 4 10 59 10 136 0 108 -2 129 -15 129 -11 0 -15 -12 -15 -51z
m-16 -65 c21 -20 20 -83 -1 -106 -18 -20 -63 -24 -81 -6 -16 16 -16 100 0 116
17 17 64 15 82 -4z"/>
<path d="M1242 343 c2 -10 10 -18 18 -18 22 0 18 29 -3 33 -14 3 -18 -1 -15
-15z"/>
<path d="M100 330 c-8 -5 -10 -10 -5 -10 6 0 17 5 25 10 8 5 11 10 5 10 -5 0
-17 -5 -25 -10z"/>
<path d="M270 330 c8 -5 20 -10 25 -10 6 0 3 5 -5 10 -8 5 -19 10 -25 10 -5 0
-3 -5 5 -10z"/>
<path d="M23 303 c-9 -3 -13 -33 -13 -98 0 -85 2 -95 21 -105 11 -7 23 -9 26
-7 2 3 -5 8 -16 12 -17 5 -21 15 -21 51 0 35 3 44 18 44 14 0 15 -2 2 -10 -11
-7 -3 -10 28 -10 26 0 41 4 37 10 -3 6 -1 10 6 10 10 0 10 3 2 11 -6 6 -30 10
-52 7 l-41 -4 0 38 c0 25 6 40 18 47 17 11 7 13 -15 4z"/>
<path d="M133 296 c4 -5 1 -16 -7 -25 -16 -18 -4 -42 27 -54 24 -9 21 -40 -7
-66 -35 -32 -50 -78 -29 -85 9 -4 18 -4 21 -1 3 3 1 5 -5 5 -6 0 5 16 23 36
19 19 34 41 34 47 0 6 12 -5 26 -26 24 -35 70 -65 82 -52 3 3 0 5 -6 5 -7 0
-12 8 -12 18 0 10 -16 33 -35 52 -27 27 -32 37 -24 52 5 10 15 18 22 18 7 0
18 9 24 19 10 15 9 22 -2 31 -8 7 -12 17 -8 24 3 6 -6 0 -20 -13 -14 -13 -27
-33 -29 -45 -4 -27 -22 -27 -26 0 -2 12 -15 32 -30 45 -15 13 -24 20 -19 15z
m16 -42 c-6 -7 -15 -11 -21 -8 -5 3 -4 12 3 20 6 7 15 11 21 8 5 -3 4 -12 -3
-20z m115 -6 c-3 -5 -12 -4 -20 3 -7 6 -11 15 -8 21 3 5 12 4 20 -3 7 -6 11
-15 8 -21z"/>
<path d="M1250 190 c0 -60 4 -100 10 -100 6 0 10 40 10 100 0 60 -4 100 -10
100 -6 0 -10 -40 -10 -100z"/>
<path d="M1374 278 c-42 -20 -57 -94 -29 -147 22 -44 86 -55 126 -22 28 22 18
41 -11 23 -31 -19 -78 -15 -90 7 -19 36 -12 41 55 41 l65 0 0 35 c0 60 -58 92
-116 63z m84 -45 c3 -21 0 -23 -47 -23 -55 0 -56 1 -40 31 16 30 83 23 87 -8z"/>
<path d="M240 60 c-8 -5 -10 -10 -5 -10 6 0 17 5 25 10 8 5 11 10 5 10 -5 0
-17 -5 -25 -10z"/>
</g>
</svg>
